<mxfile host="app.diagrams.net" modified="2021-03-14T14:16:39.156Z" agent="5.0 (Windows NT 10.0; Win64; x64) AppleWebKit/537.36 (KHTML, like Gecko) Chrome/89.0.4389.82 Safari/537.36" etag="a52VHBRqtdSEXaAnsOz7" version="14.4.8" type="github">
  <diagram id="2bV4nyoxH-IMSxkTkZ1s" name="Page-1">
    <mxGraphModel dx="862" dy="393" grid="1" gridSize="10" guides="1" tooltips="1" connect="1" arrows="1" fold="1" page="1" pageScale="1" pageWidth="827" pageHeight="1169" math="0" shadow="0">
      <root>
        <mxCell id="0" />
        <mxCell id="1" parent="0" />
        <mxCell id="xPxWe-b-bwiXqDHMyjBY-1" value="&lt;b&gt;HIPÓTESES&lt;/b&gt;&lt;br&gt;# Se J1 == J2 =&amp;gt; EMPATE&lt;br&gt;#J1 ganha quando:&lt;br&gt;(J1 == Pedra e J2 == Tesoura) ou (J1 == Papel e J2 == Pedra) ou (J1 == Tesoura e J2 ==Papel)&lt;br&gt;#J2 ganha caso contrário" style="text;html=1;strokeColor=none;fillColor=none;align=center;verticalAlign=middle;whiteSpace=wrap;rounded=0;" vertex="1" parent="1">
          <mxGeometry x="570" y="10" width="180" height="120" as="geometry" />
        </mxCell>
        <mxCell id="xPxWe-b-bwiXqDHMyjBY-2" value="C1 = (J1 == Pedra e J2 == Tesoura) ou (J1 == Papel e J2 == Pedra) ou (J1 == Tesoura e J2 ==Papel)&lt;br&gt;&amp;nbsp;" style="text;html=1;strokeColor=none;fillColor=none;align=center;verticalAlign=middle;whiteSpace=wrap;rounded=0;" vertex="1" parent="1">
          <mxGeometry x="580" y="180" width="210" height="110" as="geometry" />
        </mxCell>
        <mxCell id="xPxWe-b-bwiXqDHMyjBY-7" style="edgeStyle=orthogonalEdgeStyle;rounded=0;orthogonalLoop=1;jettySize=auto;html=1;entryX=0.5;entryY=0;entryDx=0;entryDy=0;" edge="1" parent="1" source="xPxWe-b-bwiXqDHMyjBY-3" target="xPxWe-b-bwiXqDHMyjBY-4">
          <mxGeometry relative="1" as="geometry" />
        </mxCell>
        <mxCell id="xPxWe-b-bwiXqDHMyjBY-3" value="INÍCIO" style="ellipse;whiteSpace=wrap;html=1;" vertex="1" parent="1">
          <mxGeometry x="50" y="10" width="80" height="50" as="geometry" />
        </mxCell>
        <mxCell id="xPxWe-b-bwiXqDHMyjBY-8" style="edgeStyle=orthogonalEdgeStyle;rounded=0;orthogonalLoop=1;jettySize=auto;html=1;entryX=0.5;entryY=0;entryDx=0;entryDy=0;" edge="1" parent="1" source="xPxWe-b-bwiXqDHMyjBY-4" target="xPxWe-b-bwiXqDHMyjBY-5">
          <mxGeometry relative="1" as="geometry" />
        </mxCell>
        <mxCell id="xPxWe-b-bwiXqDHMyjBY-4" value="SORTEIO J1, J2" style="rounded=0;whiteSpace=wrap;html=1;" vertex="1" parent="1">
          <mxGeometry x="40" y="100" width="100" height="40" as="geometry" />
        </mxCell>
        <mxCell id="xPxWe-b-bwiXqDHMyjBY-9" style="edgeStyle=orthogonalEdgeStyle;rounded=0;orthogonalLoop=1;jettySize=auto;html=1;entryX=0.5;entryY=0;entryDx=0;entryDy=0;" edge="1" parent="1" source="xPxWe-b-bwiXqDHMyjBY-5" target="xPxWe-b-bwiXqDHMyjBY-6">
          <mxGeometry relative="1" as="geometry" />
        </mxCell>
        <mxCell id="xPxWe-b-bwiXqDHMyjBY-13" style="edgeStyle=orthogonalEdgeStyle;rounded=0;orthogonalLoop=1;jettySize=auto;html=1;" edge="1" parent="1" source="xPxWe-b-bwiXqDHMyjBY-5">
          <mxGeometry relative="1" as="geometry">
            <mxPoint x="220" y="195" as="targetPoint" />
          </mxGeometry>
        </mxCell>
        <mxCell id="xPxWe-b-bwiXqDHMyjBY-5" value="J1==J2" style="rhombus;whiteSpace=wrap;html=1;" vertex="1" parent="1">
          <mxGeometry x="55" y="170" width="70" height="50" as="geometry" />
        </mxCell>
        <mxCell id="xPxWe-b-bwiXqDHMyjBY-27" style="edgeStyle=orthogonalEdgeStyle;rounded=0;orthogonalLoop=1;jettySize=auto;html=1;entryX=0;entryY=0.5;entryDx=0;entryDy=0;" edge="1" parent="1" source="xPxWe-b-bwiXqDHMyjBY-6" target="xPxWe-b-bwiXqDHMyjBY-25">
          <mxGeometry relative="1" as="geometry" />
        </mxCell>
        <mxCell id="xPxWe-b-bwiXqDHMyjBY-6" value="EMPATE" style="shape=document;whiteSpace=wrap;html=1;boundedLbl=1;" vertex="1" parent="1">
          <mxGeometry x="35" y="250" width="110" height="70" as="geometry" />
        </mxCell>
        <mxCell id="xPxWe-b-bwiXqDHMyjBY-10" value="V" style="text;html=1;strokeColor=none;fillColor=none;align=center;verticalAlign=middle;whiteSpace=wrap;rounded=0;" vertex="1" parent="1">
          <mxGeometry x="85" y="220" width="40" height="20" as="geometry" />
        </mxCell>
        <mxCell id="xPxWe-b-bwiXqDHMyjBY-16" style="edgeStyle=orthogonalEdgeStyle;rounded=0;orthogonalLoop=1;jettySize=auto;html=1;entryX=0.5;entryY=0;entryDx=0;entryDy=0;" edge="1" parent="1" source="xPxWe-b-bwiXqDHMyjBY-11" target="xPxWe-b-bwiXqDHMyjBY-15">
          <mxGeometry relative="1" as="geometry" />
        </mxCell>
        <mxCell id="xPxWe-b-bwiXqDHMyjBY-19" style="edgeStyle=orthogonalEdgeStyle;rounded=0;orthogonalLoop=1;jettySize=auto;html=1;entryX=0.564;entryY=0.015;entryDx=0;entryDy=0;entryPerimeter=0;" edge="1" parent="1" source="xPxWe-b-bwiXqDHMyjBY-11" target="xPxWe-b-bwiXqDHMyjBY-18">
          <mxGeometry relative="1" as="geometry">
            <mxPoint x="420" y="230" as="targetPoint" />
          </mxGeometry>
        </mxCell>
        <mxCell id="xPxWe-b-bwiXqDHMyjBY-11" value="C1" style="rhombus;whiteSpace=wrap;html=1;" vertex="1" parent="1">
          <mxGeometry x="230" y="165" width="60" height="60" as="geometry" />
        </mxCell>
        <mxCell id="xPxWe-b-bwiXqDHMyjBY-12" style="edgeStyle=orthogonalEdgeStyle;rounded=0;orthogonalLoop=1;jettySize=auto;html=1;exitX=0.5;exitY=1;exitDx=0;exitDy=0;" edge="1" parent="1" source="xPxWe-b-bwiXqDHMyjBY-11" target="xPxWe-b-bwiXqDHMyjBY-11">
          <mxGeometry relative="1" as="geometry" />
        </mxCell>
        <mxCell id="xPxWe-b-bwiXqDHMyjBY-14" value="F" style="text;html=1;strokeColor=none;fillColor=none;align=center;verticalAlign=middle;whiteSpace=wrap;rounded=0;" vertex="1" parent="1">
          <mxGeometry x="105" y="170" width="40" height="20" as="geometry" />
        </mxCell>
        <mxCell id="xPxWe-b-bwiXqDHMyjBY-26" style="edgeStyle=orthogonalEdgeStyle;rounded=0;orthogonalLoop=1;jettySize=auto;html=1;entryX=0.5;entryY=0;entryDx=0;entryDy=0;" edge="1" parent="1" source="xPxWe-b-bwiXqDHMyjBY-15" target="xPxWe-b-bwiXqDHMyjBY-25">
          <mxGeometry relative="1" as="geometry" />
        </mxCell>
        <mxCell id="xPxWe-b-bwiXqDHMyjBY-15" value="J1 GANHA" style="shape=document;whiteSpace=wrap;html=1;boundedLbl=1;" vertex="1" parent="1">
          <mxGeometry x="205" y="250" width="110" height="65" as="geometry" />
        </mxCell>
        <mxCell id="xPxWe-b-bwiXqDHMyjBY-17" value="V" style="text;html=1;strokeColor=none;fillColor=none;align=center;verticalAlign=middle;whiteSpace=wrap;rounded=0;" vertex="1" parent="1">
          <mxGeometry x="250" y="220" width="40" height="20" as="geometry" />
        </mxCell>
        <mxCell id="xPxWe-b-bwiXqDHMyjBY-28" style="edgeStyle=orthogonalEdgeStyle;rounded=0;orthogonalLoop=1;jettySize=auto;html=1;entryX=1;entryY=0.5;entryDx=0;entryDy=0;" edge="1" parent="1" source="xPxWe-b-bwiXqDHMyjBY-18" target="xPxWe-b-bwiXqDHMyjBY-25">
          <mxGeometry relative="1" as="geometry" />
        </mxCell>
        <mxCell id="xPxWe-b-bwiXqDHMyjBY-18" value="J2 GANHA" style="shape=document;whiteSpace=wrap;html=1;boundedLbl=1;" vertex="1" parent="1">
          <mxGeometry x="360" y="245" width="110" height="65" as="geometry" />
        </mxCell>
        <mxCell id="xPxWe-b-bwiXqDHMyjBY-21" value="F" style="text;html=1;strokeColor=none;fillColor=none;align=center;verticalAlign=middle;whiteSpace=wrap;rounded=0;" vertex="1" parent="1">
          <mxGeometry x="280" y="170" width="40" height="20" as="geometry" />
        </mxCell>
        <mxCell id="xPxWe-b-bwiXqDHMyjBY-22" style="edgeStyle=orthogonalEdgeStyle;rounded=0;orthogonalLoop=1;jettySize=auto;html=1;exitX=0.5;exitY=1;exitDx=0;exitDy=0;" edge="1" parent="1" source="xPxWe-b-bwiXqDHMyjBY-10" target="xPxWe-b-bwiXqDHMyjBY-10">
          <mxGeometry relative="1" as="geometry" />
        </mxCell>
        <mxCell id="xPxWe-b-bwiXqDHMyjBY-25" value="FIM" style="ellipse;whiteSpace=wrap;html=1;" vertex="1" parent="1">
          <mxGeometry x="202.5" y="380" width="115" height="60" as="geometry" />
        </mxCell>
      </root>
    </mxGraphModel>
  </diagram>
</mxfile>
